<?xml version="1.0" encoding="UTF-8"?><svg id="Layer_2" xmlns="http://www.w3.org/2000/svg" viewBox="0 0 133.84 33.16"><g id="Layer_1-2"><g><path d="M5.21,25.85c-2.24,0-3.61-.64-5.12-1.82v.81c1.51,1.12,3.28,1.68,5.15,1.68,3.33,0,5.54-2.18,5.54-4.98,0-2.46-.9-3.98-4.93-6.3-2.91-1.68-3.05-2.58-3.05-3.64,0-1.32,1.01-2.18,2.74-2.18s3.19,.7,4.48,1.96v-.95c-1.48-1.29-3.11-1.68-4.4-1.68-2.16,0-3.5,1.12-3.5,2.83,0,1.51,.42,2.44,3.33,4.2,3.53,2.13,4.65,3.16,4.65,5.77s-2.02,4.31-4.9,4.31Z"/><path d="M0,11.68c0,2.35,1.04,3.89,3.86,5.54,3.78,2.21,4.06,3.05,4.06,4.34,0,1.48-1.09,2.52-2.69,2.52-1.99,0-3.7-1.06-5.15-2.8v.95c1.4,1.51,2.94,2.52,5.15,2.52,1.76,0,3.36-1.26,3.36-3.19s-.84-2.74-4.34-4.87c-2.32-1.4-3.58-2.58-3.58-5.07,0-2.32,1.93-4.03,4.9-4.03,1.29,0,2.97,.36,4.45,1.48v-.81c-1.32-.87-2.83-1.34-4.4-1.34C2.35,6.92,0,8.96,0,11.68Z"/><rect x="12.46" y="7.17" width="15.96" height=".67"/><polygon points="21.11 9.16 21.11 26.27 21.78 26.27 21.78 9.83 28.42 9.83 28.42 9.16 21.11 9.16"/><polygon points="12.46 9.83 18.98 9.83 18.98 26.27 19.66 26.27 19.66 9.16 12.46 9.16 12.46 9.83"/><path d="M36.09,9.35l-3.72,9.27h7.81l-4.03-9.27h-.06Zm-2.8,8.65l2.83-7.22,3.14,7.22h-5.96Z"/><polygon points="45.64 26.27 37.04 7.06 35.22 7.06 26.96 26.27 27.64 26.27 35.62 7.73 36.65 7.73 44.97 26.27 45.64 26.27"/><polygon points="29.18 26.27 29.88 26.27 32.2 20.58 40.35 20.58 42.73 26.27 43.43 26.27 40.77 19.94 31.78 19.94 29.18 26.27"/><path d="M51.83,17.28h-1.88v8.99h.67v-8.32h1.12c1.34,0,2.6,.56,4.48,3.61l2.91,4.7h.9l-3.28-5.18c-1.62-2.55-3.02-3.81-4.93-3.81Z"/><path d="M56.75,12.41c0-2.41-1.79-3.22-3.84-3.22h-2.97v6.75h2.18c3.08,0,4.62-.84,4.62-3.53Zm-4.51,2.86h-1.62v-5.4h2.27c2.07,0,3.19,.78,3.19,2.63,0,2.55-1.85,2.77-3.84,2.77Z"/><path d="M58.91,12.49c0-3.02-1.71-5.32-5.82-5.32h-5.26V26.27h.67V7.84h4.51c3.44,0,5.24,1.76,5.24,4.65,0,2.49-1.26,3.89-3.86,4.4v.06c1.32,.59,2.1,1.06,3.44,3.16l3.84,6.16h.9l-4.2-6.64c-.95-1.51-1.48-2.02-2.46-2.55,2.16-.87,3.02-2.38,3.02-4.59Z"/><path d="M82.29,16.49c0-5.38-3.92-9.32-10.3-9.32h-7.25V26.27h7.28c6.05,0,10.28-3.86,10.28-9.77Zm-16.88,9.1V7.84h6.22c6.13,0,10,3.56,10,8.68,0,5.57-3.89,9.07-9.97,9.07h-6.24Z"/><path d="M71.59,9.19h-4.73v15.18h4.73c5.26,0,8.51-3.16,8.51-7.7s-3.08-7.48-8.51-7.48Zm0,14.5h-4.06V9.86h4.06c5.4,0,7.84,2.77,7.84,6.8,0,4.4-3.02,7.03-7.84,7.03Z"/><path d="M87.64,7.17v11.06c0,4.56,2.07,6.27,6.1,6.27s6.05-1.88,6.05-6.27V7.17h-.67v11.06c0,4.17-1.74,5.6-5.38,5.6s-5.43-1.37-5.43-5.6V7.17h-.67Z"/><path d="M85.51,7.17v11.06c0,5.4,2.86,8.29,8.23,8.29s8.18-3.08,8.18-8.29V7.17h-.67v11.06c0,4.62-2.16,7.62-7.53,7.62s-7.53-2.88-7.53-7.62V7.17h-.67Z"/><path d="M110.63,25.85c-2.24,0-3.61-.64-5.12-1.82v.81c1.51,1.12,3.28,1.68,5.15,1.68,3.33,0,5.54-2.18,5.54-4.98,0-2.46-.9-3.98-4.93-6.3-2.91-1.68-3.05-2.58-3.05-3.64,0-1.32,1.01-2.18,2.74-2.18s3.19,.7,4.48,1.96v-.95c-1.48-1.29-3.11-1.68-4.4-1.68-2.16,0-3.5,1.12-3.5,2.83,0,1.51,.42,2.44,3.33,4.2,3.53,2.13,4.65,3.16,4.65,5.77s-2.02,4.31-4.9,4.31Z"/><path d="M105.42,11.68c0,2.35,1.04,3.89,3.86,5.54,3.78,2.21,4.06,3.05,4.06,4.34,0,1.48-1.09,2.52-2.69,2.52-1.99,0-3.7-1.06-5.15-2.8v.95c1.4,1.51,2.94,2.52,5.15,2.52,1.76,0,3.36-1.26,3.36-3.19s-.84-2.74-4.34-4.87c-2.32-1.4-3.58-2.58-3.58-5.07,0-2.32,1.93-4.03,4.9-4.03,1.29,0,2.97,.36,4.45,1.48v-.81c-1.32-.87-2.83-1.34-4.4-1.34-3.28,0-5.63,2.04-5.63,4.76Z"/><polygon points="127.2 26.27 127.2 9.83 133.84 9.83 133.84 9.16 126.53 9.16 126.53 26.27 127.2 26.27"/><polygon points="117.88 9.83 124.4 9.83 124.4 26.27 125.07 26.27 125.07 9.16 117.88 9.16 117.88 9.83"/><rect x="117.88" y="7.17" width="15.96" height=".67"/><rect x="0" y="2.94" width="133.84" height=".5"/><rect x="0" y="1.47" width="133.84" height=".5"/><rect x="0" width="133.84" height=".5"/><polygon points="0 29.71 0 30.21 58.25 30.21 58.25 31.18 0 31.18 0 31.68 58.25 31.68 58.25 32.66 0 32.66 0 33.16 58.25 33.16 58.75 33.16 58.75 32.66 58.75 31.68 58.75 31.18 58.75 30.21 58.75 29.71 58.25 29.71 0 29.71"/><polygon points="60.74 29.78 60.38 29.78 60.38 33.16 63.92 33.16 63.92 32.84 60.74 32.84 60.74 29.78"/><path d="M66.35,29.71l-2.17,3.44h.44l.52-.84h2.7l.52,.84h.45l-2.16-3.44h-.28Zm-1.02,2.29l1.16-1.87,1.15,1.87h-2.31Z"/><path d="M72.62,31.2c.32-.09,.54-.34,.54-.66,0-.58-.54-.76-1.03-.76h-2.77v3.37h2.77c.67,0,1.32-.35,1.32-1.09,0-.49-.36-.79-.83-.87Zm-2.9-1.11h2.37c.35,0,.69,.12,.69,.49,0,.34-.33,.52-.68,.52h-2.39v-1Zm2.38,2.75h-2.38v-1.44h2.33c.7,0,1.02,.27,1.02,.68,0,.51-.46,.76-.97,.76Z"/><polygon points="75.09 29.71 75.09 30.21 75.09 31.18 75.09 31.68 75.09 32.66 75.09 33.16 75.59 33.16 133.84 33.16 133.84 32.66 75.59 32.66 75.59 31.68 133.84 31.68 133.84 31.18 75.59 31.18 75.59 30.21 133.84 30.21 133.84 29.71 75.59 29.71 75.09 29.71"/></g></g></svg>