<?xml version="1.0" encoding="UTF-8"?><svg id="Layer_2" xmlns="http://www.w3.org/2000/svg" viewBox="0 0 1925 1039.26"><defs><style>.cls-1{fill:none;stroke:#998f64;stroke-miterlimit:10;stroke-width:6px;}</style></defs><g id="Layer_1-2"><g><rect class="cls-1" x="445.87" y="-439.87" width="1033.26" height="1919" transform="translate(442.87 1482.13) rotate(-90)"/><rect class="cls-1" x="-157.17" y="163.17" width="692.22" height="371.87" transform="translate(-160.17 538.05) rotate(-90)"/><rect class="cls-1" x="637.44" y="171.95" width="692.22" height="354.33" transform="translate(634.44 1332.66) rotate(-90)"/><rect class="cls-1" x="1375.04" y="148.26" width="692.22" height="401.69" transform="translate(1372.04 2070.26) rotate(-90)"/><ellipse class="cls-1" cx="193.32" cy="780.48" rx="67.53" ry="85.26"/><ellipse class="cls-1" cx="916.02" cy="121.75" rx="109.63" ry="118.75"/><line class="cls-1" x1="1523.82" y1="772.36" x2="1143.17" y2="772.36"/><line class="cls-1" x1="1558.9" y1="865.74" x2="1160.71" y2="865.74"/><line class="cls-1" x1="1630.82" y1="942.88" x2="1143.17" y2="942.88"/><line class="cls-1" x1="1520.31" y1="1036.26" x2="1160.71" y2="1036.26"/><line class="cls-1" x1="611.68" y1="772.36" x2="260.85" y2="772.36"/><line class="cls-1" x1="359.09" y1="439.44" x2="3" y2="439.44"/><line class="cls-1" x1="331.02" y1="518.61" x2="3" y2="518.61"/><line class="cls-1" x1="259.1" y1="614.02" x2="3" y2="614.02"/><line class="cls-1" x1="1857.1" y1="695.22" x2="1857.1" y2="348.1"/><line class="cls-1" x1="1774.65" y1="695.22" x2="1774.65" y2="364.34"/><path class="cls-1" d="M1686.95,695.22V348.26s-10.28-175.06-162.84-159.56c-152.56,15.5-175.7,159.56-175.7,159.56"/><line class="cls-1" x1="1595.73" y1="695.22" x2="1595.73" y2="348.1"/><line class="cls-1" x1="741.48" y1="689.13" x2="741.48" y2="348.1"/><line class="cls-1" x1="569.58" y1="689.13" x2="569.58" y2="348.1"/><ellipse class="cls-1" cx="1812.37" cy="796.72" rx="109.63" ry="101.5"/><path class="cls-1" d="M1922,1036.26s-420.99-8.12-401.69-341.04"/><path class="cls-1" d="M983.55,1036.26s177.17,0,177.17-170.52H611.68"/><path class="cls-1" d="M983.55,695.22s183.55-16.24,176.99,170.52"/><line class="cls-1" x1="1520.31" y1="348.1" x2="1520.31" y2="348.1"/><ellipse class="cls-1" cx="954.17" cy="626.2" rx="67.97" ry="62.93"/><ellipse class="cls-1" cx="1343.14" cy="448.58" rx="68.41" ry="72.06"/><line class="cls-1" x1="1348.4" y1="689.13" x2="1348.4" y2="346.07"/><path class="cls-1" d="M623.97,1036.26s-368.38-52.78-363.11-341.04"/><path class="cls-1" d="M20.52,3S382.19,39.54,374.87,348.1H3"/><path class="cls-1" d="M374.98,361.81s-10.63,333.41-356.19,333.41"/><path class="cls-1" d="M678.31,240.51S504.68,180.06,497.66,7.06"/><line class="cls-1" x1="501.17" y1="43.6" x2="678.33" y2="43.6"/><line class="cls-1" x1="516.96" y1="96.38" x2="678.33" y2="96.38"/><line class="cls-1" x1="546.78" y1="147.13" x2="678.33" y2="147.13"/><line class="cls-1" x1="597.64" y1="195.85" x2="678.33" y2="195.85"/><line class="cls-1" x1="678.33" y1="3" x2="678.33" y2="689.13"/><line class="cls-1" x1="683.6" y1="695.22" x2="374.87" y2="695.22"/><line class="cls-1" x1="678.33" y1="348.1" x2="362.59" y2="348.1"/><path class="cls-1" d="M566.61,689.13s-194.85-29.4-191.7-169.54c3.15-140.14,194.67-171.5,194.67-171.5"/></g></g></svg>