<?xml version="1.0" encoding="UTF-8"?><svg id="Layer_2" xmlns="http://www.w3.org/2000/svg" viewBox="0 0 549.89 1018.71"><defs><style>.cls-1{fill:none;stroke:#998f64;stroke-miterlimit:10;stroke-width:3px;}</style></defs><g id="Layer_1-2"><g><rect class="cls-1" x="1.5" y="1.5" width="546.89" height="1015.71" transform="translate(549.89 1018.71) rotate(180)"/><rect class="cls-1" x="1.5" y="820.38" width="366.39" height="196.83" transform="translate(369.39 1837.58) rotate(180)"/><rect class="cls-1" x="1.5" y="404.44" width="366.39" height="187.54" transform="translate(369.39 996.42) rotate(180)"/><rect class="cls-1" x="1.5" y="1.5" width="366.39" height="212.61" transform="translate(369.39 215.61) rotate(180)"/><ellipse class="cls-1" cx="413.01" cy="916.47" rx="45.13" ry="35.74"/><ellipse class="cls-1" cx="64.35" cy="533.96" rx="62.85" ry="58.03"/><line class="cls-1" x1="408.71" y1="212.25" x2="408.71" y2="413.72"/><line class="cls-1" x1="458.14" y1="193.69" x2="458.14" y2="404.44"/><line class="cls-1" x1="498.97" y1="155.62" x2="498.97" y2="413.72"/><line class="cls-1" x1="548.39" y1="214.11" x2="548.39" y2="404.44"/><line class="cls-1" x1="408.71" y1="695.04" x2="408.71" y2="880.73"/><line class="cls-1" x1="232.51" y1="828.73" x2="232.51" y2="1017.21"/><line class="cls-1" x1="274.41" y1="843.59" x2="274.41" y2="1017.21"/><line class="cls-1" x1="324.91" y1="881.65" x2="324.91" y2="1017.21"/><line class="cls-1" x1="367.89" y1="35.85" x2="184.16" y2="35.85"/><line class="cls-1" x1="367.89" y1="79.49" x2="192.75" y2="79.49"/><path class="cls-1" d="M367.89,125.91H184.24s-92.66,5.44-84.45,86.19c8.2,80.75,84.45,93,84.45,93"/><line class="cls-1" x1="367.89" y1="174.19" x2="184.16" y2="174.19"/><line class="cls-1" x1="364.66" y1="626.34" x2="184.16" y2="626.34"/><line class="cls-1" x1="364.66" y1="717.32" x2="184.16" y2="717.32"/><ellipse class="cls-1" cx="421.61" cy="59.53" rx="53.72" ry="58.03"/><path class="cls-1" d="M548.39,1.5s-4.3,222.82-180.51,212.61"/><path class="cls-1" d="M548.39,498.21s0-93.77-90.25-93.77v290.6"/><path class="cls-1" d="M367.89,498.21s-8.6-97.15,90.25-93.68"/><ellipse class="cls-1" cx="331.35" cy="513.76" rx="33.31" ry="35.98"/><ellipse class="cls-1" cx="237.34" cy="307.88" rx="38.14" ry="36.21"/><line class="cls-1" x1="364.66" y1="305.1" x2="183.08" y2="305.1"/><path class="cls-1" d="M548.39,688.53s-27.94,194.98-180.51,192.19"/><path class="cls-1" d="M1.5,1007.93s19.34-191.43,182.66-187.55v196.83"/><path class="cls-1" d="M191.42,820.32s176.47,5.63,176.47,188.53"/><path class="cls-1" d="M127.21,659.77s-31.99,91.9-123.56,95.61"/><line class="cls-1" x1="22.99" y1="753.53" x2="22.99" y2="659.76"/><line class="cls-1" x1="50.92" y1="745.17" x2="50.92" y2="659.76"/><line class="cls-1" x1="77.79" y1="729.39" x2="77.79" y2="659.76"/><line class="cls-1" x1="103.57" y1="702.47" x2="103.57" y2="659.76"/><line class="cls-1" x1="1.5" y1="659.76" x2="364.66" y2="659.76"/><line class="cls-1" x1="367.89" y1="656.97" x2="367.89" y2="820.38"/><line class="cls-1" x1="184.16" y1="659.76" x2="184.16" y2="826.88"/><path class="cls-1" d="M364.66,718.89s-15.56,103.13-89.73,101.46c-74.17-1.67-90.77-103.04-90.77-103.04"/></g></g></svg>